<svg width="178" height="172" viewBox="0 0 178 172" fill="none" xmlns="http://www.w3.org/2000/svg">
<rect width="178.004" height="171.513" fill="#FFB900"/>
<path d="M59.7386 86.0174V54.1838C59.7386 45.2105 61.519 37.8753 65.0798 32.178C68.7831 26.3382 73.4833 22.2789 79.1806 20L84.7355 33.4599C81.4595 34.7417 78.8958 36.9494 77.0441 40.083C75.3349 43.074 74.4804 47.6319 74.4804 53.7565H88.7948V86.0174H59.7386ZM20 86.0174V54.1838C20 45.2105 21.7804 37.8753 25.3412 32.178C29.0445 26.3382 33.7447 22.2789 39.442 20L44.9969 33.4599C41.7209 34.7417 39.1571 36.9494 37.3055 40.083C35.5963 43.074 34.7417 47.6319 34.7417 53.7565H49.0562V86.0174H20Z" fill="black"/>
<path d="M118.265 85.4956V117.329C118.265 126.302 116.485 133.638 112.924 139.335C109.221 145.175 104.52 149.234 98.8232 151.513L93.2683 138.053C96.5442 136.771 99.108 134.564 100.96 131.43C102.669 128.439 103.523 123.881 103.523 117.757H89.209V85.4956H118.265ZM158.004 85.4956V117.329C158.004 126.302 156.223 133.638 152.663 139.335C148.959 145.175 144.259 149.234 138.562 151.513L133.007 138.053C136.283 136.771 138.847 134.564 140.698 131.43C142.407 128.439 143.262 123.881 143.262 117.757H128.948V85.4956H158.004Z" fill="black"/>
</svg>
